<svg xmlns="http://www.w3.org/2000/svg" xmlns:vectornator="http://vectornator.io" xmlns:xlink="http://www.w3.org/1999/xlink" width="100%" height="100%" style="fill-rule:evenodd;clip-rule:evenodd;stroke-linecap:round;stroke-linejoin:round" version="1.1" viewBox="0 0 1024 1024" xml:space="preserve"><metadata><vectornator:setting key="DimensionsVisible" value="1"/><vectornator:setting key="PencilOnly" value="0"/><vectornator:setting key="SnapToPoints" value="0"/><vectornator:setting key="OutlineMode" value="0"/><vectornator:setting key="CMYKEnabledKey" value="0"/><vectornator:setting key="RulersVisible" value="1"/><vectornator:setting key="SnapToEdges" value="0"/><vectornator:setting key="GuidesVisible" value="1"/><vectornator:setting key="DisplayWhiteBackground" value="0"/><vectornator:setting key="doHistoryDisabled" value="0"/><vectornator:setting key="SnapToGuides" value="1"/><vectornator:setting key="TimeLapseWatermarkDisabled" value="0"/><vectornator:setting key="Units" value="Pixels"/><vectornator:setting key="DynamicGuides" value="0"/><vectornator:setting key="IsolateActiveLayer" value="0"/><vectornator:setting key="SnapToGrid" value="0"/></metadata><defs><radialGradient id="RadialGradient" cx="483.149" cy="510.72" r="131.065" gradientTransform="matrix(1 0 0 1 12.0816 0.900564)" gradientUnits="userSpaceOnUse"><stop offset=".304" stop-color="#ffc200"/><stop offset="1" stop-color="#ff5843"/></radialGradient></defs><g id="Layer 1" vectornator:layerName="Layer 1"><g opacity="1"><path fill="#102736" d="M391.439+844.395C544.808+844.395+655.989+748.155+668.294+613.243L668.733+608.409L539.534+608.409L538.655+612.803C521.517+687.95+467.903+731.895+391.439+731.895C289.925+731.895+224.886+649.278+224.886+515.684L224.886+515.245C224.886+382.53+289.925+300.792+391.439+300.792C470.54+300.792+522.396+346.495+537.337+416.368L539.095+423.839L668.294+423.839L667.855+419.883C655.55+285.411+545.247+188.292+391.439+188.292C206.429+188.292+89.5342+311.339+89.5342+515.684L89.5342+516.124C89.5342+720.469+205.989+844.395+391.439+844.395Z" opacity="1"/></g><g opacity="1"><path fill="#ff582a" d="M635.065+713.297L785.191+713.297C903.167+713.297+972.644+640.005+972.644+515.218L972.644+514.673C972.644+390.158+902.894+320.136+785.191+320.136L635.065+320.136L635.065+713.297ZM717.349+645.182L717.349+387.979L775.383+387.979C847.585+387.979+888.726+432.935+888.726+514.946L888.726+515.491C888.726+600.498+848.947+645.182+775.383+645.182L717.349+645.182Z" opacity="1"/></g><path fill="#ff582a" d="M660.461+372.855L908.436+372.855L908.436+670.234L660.461+670.234L660.461+372.855Z" opacity="1"/><path fill="url(#RadialGradient)" d="M561.555+447.499L561.555+447.499C597.308+447.499+626.292+476.482+626.292+512.235L626.292+513.009C626.292+548.762+597.308+577.746+561.555+577.746L561.555+577.746C525.802+577.746+496.819+548.762+496.819+513.009L496.819+512.235C496.819+476.482+525.802+447.499+561.555+447.499Z" opacity="1"/></g></svg>